<svg xmlns="http://www.w3.org/2000/svg" width="1200" height="800" viewBox="0 0 1200 800">
<rect x="0" y="0" width="1200" height="800" fill="white"/>
<rect x="297.5" y="70" width="635" height="635" fill="none" stroke="black" stroke-width="1"/>
<line x1="327.73809523809444" y1="705" x2="327.73809523809444" y2="715" stroke="black" stroke-width="1"/>
<text x="327.73809523809444" y="719" font-family="sans-serif" font-size="18" text-anchor="middle" dominant-baseline="hanging">-1</text>
<line x1="467.5892857142852" y1="705" x2="467.5892857142852" y2="715" stroke="black" stroke-width="1"/>
<text x="467.5892857142852" y="719" font-family="sans-serif" font-size="18" text-anchor="middle" dominant-baseline="hanging">-0.5</text>
<line x1="607.4404761904759" y1="705" x2="607.4404761904759" y2="715" stroke="black" stroke-width="1"/>
<text x="607.4404761904759" y="719" font-family="sans-serif" font-size="18" text-anchor="middle" dominant-baseline="hanging">0</text>
<line x1="747.2916666666667" y1="705" x2="747.2916666666667" y2="715" stroke="black" stroke-width="1"/>
<text x="747.2916666666667" y="719" font-family="sans-serif" font-size="18" text-anchor="middle" dominant-baseline="hanging">0.5</text>
<line x1="887.1428571428576" y1="705" x2="887.1428571428576" y2="715" stroke="black" stroke-width="1"/>
<text x="887.1428571428576" y="719" font-family="sans-serif" font-size="18" text-anchor="middle" dominant-baseline="hanging">1</text>
<line x1="297.5" y1="639.484126984127" x2="287.5" y2="639.484126984127" stroke="black" stroke-width="1"/>
<text x="281.5" y="639.484126984127" font-family="sans-serif" font-size="18" text-anchor="end" dominant-baseline="middle">-4</text>
<line x1="297.5" y1="513.4920634920635" x2="287.5" y2="513.4920634920635" stroke="black" stroke-width="1"/>
<text x="281.5" y="513.4920634920635" font-family="sans-serif" font-size="18" text-anchor="end" dominant-baseline="middle">-2</text>
<line x1="297.5" y1="387.5" x2="287.5" y2="387.5" stroke="black" stroke-width="1"/>
<text x="281.5" y="387.5" font-family="sans-serif" font-size="18" text-anchor="end" dominant-baseline="middle">0</text>
<line x1="297.5" y1="261.5079365079365" x2="287.5" y2="261.5079365079365" stroke="black" stroke-width="1"/>
<text x="281.5" y="261.5079365079365" font-family="sans-serif" font-size="18" text-anchor="end" dominant-baseline="middle">2</text>
<line x1="297.5" y1="135.515873015873" x2="287.5" y2="135.515873015873" stroke="black" stroke-width="1"/>
<text x="281.5" y="135.515873015873" font-family="sans-serif" font-size="18" text-anchor="end" dominant-baseline="middle">4</text>
<text x="615" y="740" font-family="sans-serif" font-size="24" text-anchor="middle" dominant-baseline="hanging">x</text>
<text x="262.5" y="387.5" font-family="sans-serif" font-size="24" text-anchor="middle" transform="rotate(-90 262.5 387.5)">v_x</text>
<text x="600" y="55" font-family="sans-serif" font-size="30" text-anchor="middle">Poincaré section</text>
<circle cx="607.4404761904759" cy="122.91666666666674" r="3" fill="black"/>
<circle cx="486.4880952380946" cy="122.91666666666674" r="3" fill="black"/>
<circle cx="365.5357142857134" cy="122.91666666666674" r="3" fill="black"/>
<circle cx="410.89285714285666" cy="652.0833333333334" r="3" fill="black"/>
<circle cx="531.8452380952378" cy="652.0833333333334" r="3" fill="black"/>
<circle cx="652.7976190476192" cy="652.0833333333334" r="3" fill="black"/>
<circle cx="773.7500000000003" cy="652.0833333333334" r="3" fill="black"/>
<circle cx="879.5833333333334" cy="122.91666666666674" r="3" fill="black"/>
<circle cx="758.6309523809521" cy="122.91666666666674" r="3" fill="black"/>
<circle cx="637.6785714285706" cy="122.91666666666674" r="3" fill="black"/>
<circle cx="516.7261904761895" cy="122.91666666666674" r="3" fill="black"/>
<circle cx="395.77380952380827" cy="122.91666666666674" r="3" fill="black"/>
<circle cx="380.6547619047618" cy="652.0833333333334" r="3" fill="black"/>
<circle cx="501.60714285714306" cy="652.0833333333334" r="3" fill="black"/>
<circle cx="622.5595238095243" cy="652.0833333333334" r="3" fill="black"/>
<circle cx="743.5119047619055" cy="652.0833333333334" r="3" fill="black"/>
<circle cx="864.4642857142867" cy="652.0833333333334" r="3" fill="black"/>
<circle cx="788.869047619047" cy="122.91666666666674" r="3" fill="black"/>
<circle cx="667.9166666666658" cy="122.91666666666674" r="3" fill="black"/>
<circle cx="546.9642857142846" cy="122.91666666666674" r="3" fill="black"/>
<circle cx="426.01190476190345" cy="122.91666666666674" r="3" fill="black"/>
<circle cx="350.4166666666667" cy="652.0833333333334" r="3" fill="black"/>
<circle cx="471.3690476190479" cy="652.0833333333334" r="3" fill="black"/>
<circle cx="592.3214285714291" cy="652.0833333333334" r="3" fill="black"/>
<circle cx="713.2738095238103" cy="652.0833333333334" r="3" fill="black"/>
<circle cx="834.2261904761915" cy="652.0833333333334" r="3" fill="black"/>
<circle cx="819.1071428571421" cy="122.91666666666674" r="3" fill="black"/>
<circle cx="698.1547619047608" cy="122.91666666666674" r="3" fill="black"/>
</svg>
