<svg xmlns="http://www.w3.org/2000/svg" width="1200" height="800" viewBox="0 0 1200 800">
<rect x="0" y="0" width="1200" height="800" fill="white"/>
<rect x="297.5" y="70" width="635" height="635" fill="none" stroke="black" stroke-width="1"/>
<line x1="350.41666666666663" y1="705" x2="350.41666666666663" y2="715" stroke="black" stroke-width="1"/>
<text x="350.41666666666663" y="719" font-family="sans-serif" font-size="18" text-anchor="middle" dominant-baseline="hanging">-1</text>
<line x1="482.70833333333337" y1="705" x2="482.70833333333337" y2="715" stroke="black" stroke-width="1"/>
<text x="482.70833333333337" y="719" font-family="sans-serif" font-size="18" text-anchor="middle" dominant-baseline="hanging">-0.5</text>
<line x1="615" y1="705" x2="615" y2="715" stroke="black" stroke-width="1"/>
<text x="615" y="719" font-family="sans-serif" font-size="18" text-anchor="middle" dominant-baseline="hanging">0</text>
<line x1="747.2916666666667" y1="705" x2="747.2916666666667" y2="715" stroke="black" stroke-width="1"/>
<text x="747.2916666666667" y="719" font-family="sans-serif" font-size="18" text-anchor="middle" dominant-baseline="hanging">0.5</text>
<line x1="879.5833333333334" y1="705" x2="879.5833333333334" y2="715" stroke="black" stroke-width="1"/>
<text x="879.5833333333334" y="719" font-family="sans-serif" font-size="18" text-anchor="middle" dominant-baseline="hanging">1</text>
<line x1="297.5" y1="639.484126984127" x2="287.5" y2="639.484126984127" stroke="black" stroke-width="1"/>
<text x="281.5" y="639.484126984127" font-family="sans-serif" font-size="18" text-anchor="end" dominant-baseline="middle">-4</text>
<line x1="297.5" y1="513.4920634920635" x2="287.5" y2="513.4920634920635" stroke="black" stroke-width="1"/>
<text x="281.5" y="513.4920634920635" font-family="sans-serif" font-size="18" text-anchor="end" dominant-baseline="middle">-2</text>
<line x1="297.5" y1="387.5" x2="287.5" y2="387.5" stroke="black" stroke-width="1"/>
<text x="281.5" y="387.5" font-family="sans-serif" font-size="18" text-anchor="end" dominant-baseline="middle">0</text>
<line x1="297.5" y1="261.5079365079365" x2="287.5" y2="261.5079365079365" stroke="black" stroke-width="1"/>
<text x="281.5" y="261.5079365079365" font-family="sans-serif" font-size="18" text-anchor="end" dominant-baseline="middle">2</text>
<line x1="297.5" y1="135.515873015873" x2="287.5" y2="135.515873015873" stroke="black" stroke-width="1"/>
<text x="281.5" y="135.515873015873" font-family="sans-serif" font-size="18" text-anchor="end" dominant-baseline="middle">4</text>
<text x="615" y="740" font-family="sans-serif" font-size="24" text-anchor="middle" dominant-baseline="hanging">x</text>
<text x="262.5" y="387.5" font-family="sans-serif" font-size="24" text-anchor="middle" transform="rotate(-90 262.5 387.5)">v_x</text>
<text x="600" y="55" font-family="sans-serif" font-size="30" text-anchor="middle">Phase space</text>
<path d="M 615.000000 122.916667 L 879.583333 122.916667" fill="none" stroke="black" stroke-width="2"/>
<path d="M 879.583333 652.083333 L 350.416667 652.083333" fill="none" stroke="black" stroke-width="2"/>
<path d="M 350.416667 122.916667 L 557.792793 122.916667" fill="none" stroke="black" stroke-width="2"/>
<path d="M 557.792793 122.916667 L 879.583333 122.916667" fill="none" stroke="black" stroke-width="2"/>
<path d="M 879.583333 652.083333 L 350.416667 652.083333" fill="none" stroke="black" stroke-width="2"/>
<path d="M 350.416667 122.916667 L 879.583333 122.916667" fill="none" stroke="black" stroke-width="2"/>
<path d="M 879.583333 652.083333 L 350.416667 652.083333" fill="none" stroke="black" stroke-width="2"/>
<path d="M 350.416667 122.916667 L 443.378378 122.916667" fill="none" stroke="black" stroke-width="2"/>
<path d="M 443.378378 122.916667 L 879.583333 122.916667" fill="none" stroke="black" stroke-width="2"/>
<path d="M 879.583333 652.083333 L 350.416667 652.083333" fill="none" stroke="black" stroke-width="2"/>
<path d="M 350.416667 122.916667 L 879.583333 122.916667" fill="none" stroke="black" stroke-width="2"/>
<path d="M 879.583333 652.083333 L 371.869369 652.083333" fill="none" stroke="black" stroke-width="2"/>
<path d="M 371.869369 652.083333 L 350.416667 652.083333" fill="none" stroke="black" stroke-width="2"/>
<path d="M 350.416667 122.916667 L 879.583333 122.916667" fill="none" stroke="black" stroke-width="2"/>
<path d="M 879.583333 652.083333 L 350.416667 652.083333" fill="none" stroke="black" stroke-width="2"/>
<path d="M 350.416667 122.916667 L 879.583333 122.916667" fill="none" stroke="black" stroke-width="2"/>
<path d="M 879.583333 652.083333 L 486.283784 652.083333" fill="none" stroke="black" stroke-width="2"/>
<path d="M 486.283784 652.083333 L 350.416667 652.083333" fill="none" stroke="black" stroke-width="2"/>
<path d="M 350.416667 122.916667 L 879.583333 122.916667" fill="none" stroke="black" stroke-width="2"/>
<path d="M 879.583333 652.083333 L 350.416667 652.083333" fill="none" stroke="black" stroke-width="2"/>
<path d="M 350.416667 122.916667 L 879.583333 122.916667" fill="none" stroke="black" stroke-width="2"/>
<path d="M 879.583333 652.083333 L 600.698198 652.083333" fill="none" stroke="black" stroke-width="2"/>
<path d="M 600.698198 652.083333 L 350.416667 652.083333" fill="none" stroke="black" stroke-width="2"/>
<path d="M 350.416667 122.916667 L 879.583333 122.916667" fill="none" stroke="black" stroke-width="2"/>
<path d="M 879.583333 652.083333 L 350.416667 652.083333" fill="none" stroke="black" stroke-width="2"/>
<path d="M 350.416667 122.916667 L 879.583333 122.916667" fill="none" stroke="black" stroke-width="2"/>
<path d="M 879.583333 652.083333 L 715.112613 652.083333" fill="none" stroke="black" stroke-width="2"/>
<path d="M 715.112613 652.083333 L 350.416667 652.083333" fill="none" stroke="black" stroke-width="2"/>
<path d="M 350.416667 122.916667 L 879.583333 122.916667" fill="none" stroke="black" stroke-width="2"/>
<path d="M 879.583333 652.083333 L 350.416667 652.083333" fill="none" stroke="black" stroke-width="2"/>
<path d="M 350.416667 122.916667 L 879.583333 122.916667" fill="none" stroke="black" stroke-width="2"/>
<path d="M 879.583333 652.083333 L 829.527027 652.083333" fill="none" stroke="black" stroke-width="2"/>
<path d="M 829.527027 652.083333 L 350.416667 652.083333" fill="none" stroke="black" stroke-width="2"/>
<path d="M 350.416667 122.916667 L 879.583333 122.916667" fill="none" stroke="black" stroke-width="2"/>
<path d="M 879.583333 652.083333 L 350.416667 652.083333" fill="none" stroke="black" stroke-width="2"/>
<path d="M 350.416667 122.916667 L 815.225225 122.916667" fill="none" stroke="black" stroke-width="2"/>
<path d="M 815.225225 122.916667 L 879.583333 122.916667" fill="none" stroke="black" stroke-width="2"/>
<path d="M 879.583333 652.083333 L 350.416667 652.083333" fill="none" stroke="black" stroke-width="2"/>
<path d="M 350.416667 122.916667 L 879.583333 122.916667" fill="none" stroke="black" stroke-width="2"/>
<path d="M 879.583333 652.083333 L 350.416667 652.083333" fill="none" stroke="black" stroke-width="2"/>
<path d="M 350.416667 122.916667 L 700.810811 122.916667" fill="none" stroke="black" stroke-width="2"/>
<path d="M 700.810811 122.916667 L 879.583333 122.916667" fill="none" stroke="black" stroke-width="2"/>
<path d="M 879.583333 652.083333 L 350.416667 652.083333" fill="none" stroke="black" stroke-width="2"/>
<path d="M 350.416667 122.916667 L 879.583333 122.916667" fill="none" stroke="black" stroke-width="2"/>
<path d="M 879.583333 652.083333 L 350.416667 652.083333" fill="none" stroke="black" stroke-width="2"/>
<path d="M 350.416667 122.916667 L 586.396396 122.916667" fill="none" stroke="black" stroke-width="2"/>
<path d="M 586.396396 122.916667 L 879.583333 122.916667" fill="none" stroke="black" stroke-width="2"/>
<path d="M 879.583333 652.083333 L 350.416667 652.083333" fill="none" stroke="black" stroke-width="2"/>
<path d="M 350.416667 122.916667 L 879.583333 122.916667" fill="none" stroke="black" stroke-width="2"/>
<path d="M 879.583333 652.083333 L 350.416667 652.083333" fill="none" stroke="black" stroke-width="2"/>
<path d="M 350.416667 122.916667 L 471.981982 122.916667" fill="none" stroke="black" stroke-width="2"/>
<path d="M 471.981982 122.916667 L 879.583333 122.916667" fill="none" stroke="black" stroke-width="2"/>
<path d="M 879.583333 652.083333 L 350.416667 652.083333" fill="none" stroke="black" stroke-width="2"/>
<path d="M 350.416667 122.916667 L 879.583333 122.916667" fill="none" stroke="black" stroke-width="2"/>
<path d="M 879.583333 652.083333 L 350.416667 652.083333" fill="none" stroke="black" stroke-width="2"/>
<path d="M 350.416667 122.916667 L 357.567568 122.916667" fill="none" stroke="black" stroke-width="2"/>
<path d="M 357.567568 122.916667 L 879.583333 122.916667" fill="none" stroke="black" stroke-width="2"/>
<path d="M 879.583333 652.083333 L 350.416667 652.083333" fill="none" stroke="black" stroke-width="2"/>
<path d="M 350.416667 122.916667 L 879.583333 122.916667" fill="none" stroke="black" stroke-width="2"/>
<path d="M 879.583333 652.083333 L 457.680180 652.083333" fill="none" stroke="black" stroke-width="2"/>
<path d="M 457.680180 652.083333 L 350.416667 652.083333" fill="none" stroke="black" stroke-width="2"/>
<path d="M 350.416667 122.916667 L 879.583333 122.916667" fill="none" stroke="black" stroke-width="2"/>
<path d="M 879.583333 652.083333 L 350.416667 652.083333" fill="none" stroke="black" stroke-width="2"/>
<path d="M 350.416667 122.916667 L 879.583333 122.916667" fill="none" stroke="black" stroke-width="2"/>
<path d="M 879.583333 652.083333 L 572.094595 652.083333" fill="none" stroke="black" stroke-width="2"/>
<path d="M 572.094595 652.083333 L 350.416667 652.083333" fill="none" stroke="black" stroke-width="2"/>
<path d="M 350.416667 122.916667 L 879.583333 122.916667" fill="none" stroke="black" stroke-width="2"/>
<path d="M 879.583333 652.083333 L 350.416667 652.083333" fill="none" stroke="black" stroke-width="2"/>
<path d="M 350.416667 122.916667 L 879.583333 122.916667" fill="none" stroke="black" stroke-width="2"/>
<path d="M 879.583333 652.083333 L 686.509009 652.083333" fill="none" stroke="black" stroke-width="2"/>
<path d="M 686.509009 652.083333 L 350.416667 652.083333" fill="none" stroke="black" stroke-width="2"/>
<path d="M 350.416667 122.916667 L 879.583333 122.916667" fill="none" stroke="black" stroke-width="2"/>
<path d="M 879.583333 652.083333 L 350.416667 652.083333" fill="none" stroke="black" stroke-width="2"/>
<path d="M 350.416667 122.916667 L 879.583333 122.916667" fill="none" stroke="black" stroke-width="2"/>
<path d="M 879.583333 652.083333 L 800.923423 652.083333" fill="none" stroke="black" stroke-width="2"/>
<path d="M 800.923423 652.083333 L 350.416667 652.083333" fill="none" stroke="black" stroke-width="2"/>
<path d="M 350.416667 122.916667 L 879.583333 122.916667" fill="none" stroke="black" stroke-width="2"/>
<path d="M 879.583333 652.083333 L 350.416667 652.083333" fill="none" stroke="black" stroke-width="2"/>
<path d="M 350.416667 122.916667 L 843.828829 122.916667" fill="none" stroke="black" stroke-width="2"/>
<path d="M 843.828829 122.916667 L 879.583333 122.916667" fill="none" stroke="black" stroke-width="2"/>
<path d="M 879.583333 652.083333 L 350.416667 652.083333" fill="none" stroke="black" stroke-width="2"/>
<path d="M 350.416667 122.916667 L 879.583333 122.916667" fill="none" stroke="black" stroke-width="2"/>
<path d="M 879.583333 652.083333 L 350.416667 652.083333" fill="none" stroke="black" stroke-width="2"/>
<path d="M 350.416667 122.916667 L 729.414414 122.916667" fill="none" stroke="black" stroke-width="2"/>
<path d="M 729.414414 122.916667 L 879.583333 122.916667" fill="none" stroke="black" stroke-width="2"/>
<path d="M 879.583333 652.083333 L 350.416667 652.083333" fill="none" stroke="black" stroke-width="2"/>
<path d="M 350.416667 122.916667 L 879.583333 122.916667" fill="none" stroke="black" stroke-width="2"/>
<path d="M 879.583333 652.083333 L 350.416667 652.083333" fill="none" stroke="black" stroke-width="2"/>
<path d="M 350.416667 122.916667 L 615.000000 122.916667" fill="none" stroke="black" stroke-width="2"/>
<path d="M 615.000000 122.916667 L 879.583333 122.916667" fill="none" stroke="black" stroke-width="2"/>
<path d="M 879.583333 652.083333 L 350.416667 652.083333" fill="none" stroke="black" stroke-width="2"/>
<path d="M 350.416667 122.916667 L 879.583333 122.916667" fill="none" stroke="black" stroke-width="2"/>
<path d="M 879.583333 652.083333 L 350.416667 652.083333" fill="none" stroke="black" stroke-width="2"/>
<path d="M 350.416667 122.916667 L 500.585586 122.916667" fill="none" stroke="black" stroke-width="2"/>
<path d="M 500.585586 122.916667 L 879.583333 122.916667" fill="none" stroke="black" stroke-width="2"/>
<path d="M 879.583333 652.083333 L 350.416667 652.083333" fill="none" stroke="black" stroke-width="2"/>
<path d="M 350.416667 122.916667 L 879.583333 122.916667" fill="none" stroke="black" stroke-width="2"/>
<path d="M 879.583333 652.083333 L 350.416667 652.083333" fill="none" stroke="black" stroke-width="2"/>
<path d="M 350.416667 122.916667 L 386.171171 122.916667" fill="none" stroke="black" stroke-width="2"/>
<path d="M 386.171171 122.916667 L 879.583333 122.916667" fill="none" stroke="black" stroke-width="2"/>
<path d="M 879.583333 652.083333 L 350.416667 652.083333" fill="none" stroke="black" stroke-width="2"/>
<path d="M 350.416667 122.916667 L 879.583333 122.916667" fill="none" stroke="black" stroke-width="2"/>
<path d="M 879.583333 652.083333 L 429.076577 652.083333" fill="none" stroke="black" stroke-width="2"/>
<path d="M 429.076577 652.083333 L 350.416667 652.083333" fill="none" stroke="black" stroke-width="2"/>
<path d="M 350.416667 122.916667 L 879.583333 122.916667" fill="none" stroke="black" stroke-width="2"/>
<path d="M 879.583333 652.083333 L 350.416667 652.083333" fill="none" stroke="black" stroke-width="2"/>
<path d="M 350.416667 122.916667 L 879.583333 122.916667" fill="none" stroke="black" stroke-width="2"/>
<path d="M 879.583333 652.083333 L 543.490991 652.083333" fill="none" stroke="black" stroke-width="2"/>
<path d="M 543.490991 652.083333 L 350.416667 652.083333" fill="none" stroke="black" stroke-width="2"/>
<path d="M 350.416667 122.916667 L 879.583333 122.916667" fill="none" stroke="black" stroke-width="2"/>
<path d="M 879.583333 652.083333 L 350.416667 652.083333" fill="none" stroke="black" stroke-width="2"/>
<path d="M 350.416667 122.916667 L 879.583333 122.916667" fill="none" stroke="black" stroke-width="2"/>
<path d="M 879.583333 652.083333 L 657.905405 652.083333" fill="none" stroke="black" stroke-width="2"/>
<path d="M 657.905405 652.083333 L 350.416667 652.083333" fill="none" stroke="black" stroke-width="2"/>
<path d="M 350.416667 122.916667 L 879.583333 122.916667" fill="none" stroke="black" stroke-width="2"/>
<path d="M 879.583333 652.083333 L 350.416667 652.083333" fill="none" stroke="black" stroke-width="2"/>
<path d="M 350.416667 122.916667 L 879.583333 122.916667" fill="none" stroke="black" stroke-width="2"/>
<path d="M 879.583333 652.083333 L 772.319820 652.083333" fill="none" stroke="black" stroke-width="2"/>
<path d="M 772.319820 652.083333 L 350.416667 652.083333" fill="none" stroke="black" stroke-width="2"/>
<path d="M 350.416667 122.916667 L 879.583333 122.916667" fill="none" stroke="black" stroke-width="2"/>
<path d="M 879.583333 652.083333 L 350.416667 652.083333" fill="none" stroke="black" stroke-width="2"/>
<path d="M 350.416667 122.916667 L 872.432432 122.916667" fill="none" stroke="black" stroke-width="2"/>
<path d="M 872.432432 122.916667 L 879.583333 122.916667" fill="none" stroke="black" stroke-width="2"/>
<path d="M 879.583333 652.083333 L 350.416667 652.083333" fill="none" stroke="black" stroke-width="2"/>
<path d="M 350.416667 122.916667 L 879.583333 122.916667" fill="none" stroke="black" stroke-width="2"/>
<path d="M 879.583333 652.083333 L 350.416667 652.083333" fill="none" stroke="black" stroke-width="2"/>
<path d="M 350.416667 122.916667 L 758.018018 122.916667" fill="none" stroke="black" stroke-width="2"/>
<path d="M 758.018018 122.916667 L 879.583333 122.916667" fill="none" stroke="black" stroke-width="2"/>
<path d="M 879.583333 652.083333 L 350.416667 652.083333" fill="none" stroke="black" stroke-width="2"/>
<path d="M 350.416667 122.916667 L 879.583333 122.916667" fill="none" stroke="black" stroke-width="2"/>
<path d="M 879.583333 652.083333 L 350.416667 652.083333" fill="none" stroke="black" stroke-width="2"/>
<path d="M 350.416667 122.916667 L 643.603604 122.916667" fill="none" stroke="black" stroke-width="2"/>
<path d="M 643.603604 122.916667 L 879.583333 122.916667" fill="none" stroke="black" stroke-width="2"/>
<path d="M 879.583333 652.083333 L 350.416667 652.083333" fill="none" stroke="black" stroke-width="2"/>
</svg>
